PathFileType	4	(X/Y/Z)	Kaydara	
DataRate	CameraRate	NumFrames	NumMarkers	Units	OrigDataRate	OrigDataStartFrame	OrigNumFrames	
240.00	240.00	4	72	mm	240.00	311	355	
Frame#	Time	Hips			RightUpLeg			RightLeg			RightFoot			RightFoot_End			LeftUpLeg			LeftLeg			LeftFoot			LeftFoot_End			Spine			Spine1			Spine2			Spine3			Neck			Head			Head_End			RightShoulder			RightArm			RightForeArm			RightHand			RightHandThumb1			RightHandThumb2			RightHandThumb3			RightHandThumb3_End			RightInHandIndex			RightHandIndex1			RightHandIndex2			RightHandIndex3			RightHandIndex3_End			RightInHandMiddle			RightHandMiddle1			RightHandMiddle2			RightHandMiddle3			RightHandMiddle3_End			RightInHandRing			RightHandRing1			RightHandRing2			RightHandRing3			RightHandRing3_End			RightInHandPinky			RightHandPinky1			RightHandPinky2			RightHandPinky3			RightHandPinky3_End			LeftShoulder			LeftArm			LeftForeArm			LeftHand			LeftHandThumb1			LeftHandThumb2			LeftHandThumb3			LeftHandThumb3_End			LeftInHandIndex			LeftHandIndex1			LeftHandIndex2			LeftHandIndex3			LeftHandIndex3_End			LeftInHandMiddle			LeftHandMiddle1			LeftHandMiddle2			LeftHandMiddle3			LeftHandMiddle3_End			LeftInHandRing			LeftHandRing1			LeftHandRing2			LeftHandRing3			LeftHandRing3_End			LeftInHandPinky			LeftHandPinky1			LeftHandPinky2			LeftHandPinky3			LeftHandPinky3_End			
		X1	Y1	Z1	X2	Y2	Z2	X3	Y3	Z3	X4	Y4	Z4	X5	Y5	Z5	X6	Y6	Z6	X7	Y7	Z7	X8	Y8	Z8	X9	Y9	Z9	X10	Y10	Z10	X11	Y11	Z11	X12	Y12	Z12	X13	Y13	Z13	X14	Y14	Z14	X15	Y15	Z15	X16	Y16	Z16	X17	Y17	Z17	X18	Y18	Z18	X19	Y19	Z19	X20	Y20	Z20	X21	Y21	Z21	X22	Y22	Z22	X23	Y23	Z23	X24	Y24	Z24	X25	Y25	Z25	X26	Y26	Z26	X27	Y27	Z27	X28	Y28	Z28	X29	Y29	Z29	X30	Y30	Z30	X31	Y31	Z31	X32	Y32	Z32	X33	Y33	Z33	X34	Y34	Z34	X35	Y35	Z35	X36	Y36	Z36	X37	Y37	Z37	X38	Y38	Z38	X39	Y39	Z39	X40	Y40	Z40	X41	Y41	Z41	X42	Y42	Z42	X43	Y43	Z43	X44	Y44	Z44	X45	Y45	Z45	X46	Y46	Z46	X47	Y47	Z47	X48	Y48	Z48	X49	Y49	Z49	X50	Y50	Z50	X51	Y51	Z51	X52	Y52	Z52	X53	Y53	Z53	X54	Y54	Z54	X55	Y55	Z55	X56	Y56	Z56	X57	Y57	Z57	X58	Y58	Z58	X59	Y59	Z59	X60	Y60	Z60	X61	Y61	Z61	X62	Y62	Z62	X63	Y63	Z63	X64	Y64	Z64	X65	Y65	Z65	X66	Y66	Z66	X67	Y67	Z67	X68	Y68	Z68	X69	Y69	Z69	X70	Y70	Z70	X71	Y71	Z71	X72	Y72	Z72	

311	1.292	6921.0129	906.651	56.2195	6906.529544813666	853.9951676193612	-24.793533346482484	6843.629635886867	442.37720499878344	-67.4405879607687	6963.606316241696	93.45182061302691	-199.8055014556954	6892.103155953622	11.871317345375562	-42.42452780848265	6941.331169107716	930.4091666249744	149.62594719783777	6892.082581643811	531.5643088961463	267.0986229778288	6784.604213703933	102.40063089887838	289.92429281517616	6670.997878546602	7.400896703474521	168.90929593589797	6894.848715611373	1036.9158854500704	3.434475909079684	6842.748167246333	1110.109861129418	-33.59208612823983	6781.838946772632	1181.745523124239	-70.68660732088975	6713.847282171752	1242.6550854954476	-103.41614194176292	6640.541204675437	1307.2411612113785	-137.73498007885863	6573.595734108443	1366.679576635896	-167.55314461024977	6447.784369395992	1460.5614037868488	-193.92894122809315	6654.8913893216795	1263.7766665708043	-146.22794708368923	6598.416852741453	1178.8395775167226	-177.8760008955224	6603.6181404136305	1071.4395206289548	15.139093404982745	6539.781278079202	1027.9565281522907	172.46297392201626	6547.87346685953	1042.2134977674743	168.14411379033749	6552.256718969776	1036.4506871946023	182.54626116137115	6554.006585375374	1030.0578632350473	195.7314046509858	6554.351010481948	1022.6927517839696	209.42272156530075	6544.006517274579	1036.4493697826783	178.19479601722148	6545.371726959904	1034.2874574481684	202.40384192258233	6546.000342261856	1024.9947153527635	223.8694617154681	6547.1698867182695	1017.0485865320245	235.30077837364652	6548.663198222508	1009.0086283866929	243.47152529483924	6540.400783634953	1029.6822957668392	186.15411620524475	6539.782117550816	1023.9155368974825	214.07077396110023	6539.9874617602445	1012.8796929510664	238.47149418386098	6541.167849767033	1002.8631940769584	252.7320029926436	6542.689690402838	993.8570852126843	261.9002974790517	6537.813515224588	1025.019618834828	191.13814708123454	6534.998556612434	1015.9885166430693	220.42078735245065	6534.687346854174	1005.4626144438414	242.64384841544492	6535.56560948904	995.3192210838596	256.9065570923883	6536.873163656635	986.6229484885203	265.7674657366176	6534.831223584546	1019.211219083875	196.35014040844257	6530.394522241024	1007.5581095694046	226.35701340487051	6529.392877593256	997.7532177493706	245.51525783650916	6529.669502999707	989.6889014961067	256.5777882067497	6530.618309572804	981.6023106397481	264.80652019502213	6676.044424107725	1309.0646704536846	-106.06956505260696	6736.34886863691	1374.586348105794	-18.594283642961784	6765.49836229771	1138.0828073620298	40.17926314938155	6639.3997644160645	971.8341823626085	152.95251890689195	6636.520358666946	987.7467318185334	162.1780370688067	6641.0166964978425	985.2376367565843	176.07113081814666	6647.00220288889	979.8570426680308	185.65048365162042	6654.433802162404	972.2633169075352	193.55442443982736	6646.704421673532	977.0565925988208	162.33672071794228	6667.517136425091	967.775530062572	177.81473740598182	6680.844273283782	956.6474076626877	190.42520158203422	6684.554923812654	950.8457996825373	198.15170763195817	6684.540367461123	946.797086897326	204.47043257336895	6653.688165873637	967.2758038900921	161.62486594916163	6677.7661025447815	952.934229948402	176.3360896364333	6693.161195494737	939.5249537204269	189.954778570726	6698.047052479644	931.917879925671	199.208461105281	6698.229997382068	927.1924540782113	206.0892006699641	6658.125616604024	960.6243280964968	160.71074191250906	6683.65734497087	942.0612784363898	173.05394838568634	6697.908817123769	929.1017960608518	184.75607343350282	6703.064001534565	921.0887161569501	193.59277891483055	6703.445646387983	916.3255448284928	200.02013601943742	6662.3649386598545	953.0551671103619	159.33654580544595	6688.518645366603	931.4330953977955	169.76103801146542	6701.118749380098	919.1520934405803	178.81589753397003	6705.4536657914905	912.3865171680072	185.1086785317359	6706.1224886027685	907.6371912177182	190.71436363826928
312	1.296	6921.0129	906.651	56.2195	6906.062443306833	853.8300030918207	-24.86931288330812	6843.382620069196	442.1593091905893	-67.39151265798682	6963.833333873689	93.40656152343166	-200.0301190679959	6892.372827205117	11.811545941646337	-42.63657513083077	6941.789822441717	930.5773484688476	149.7126334386807	6892.542166858434	531.7731783818656	267.32846100523625	6784.7475347958125	102.62751131168982	289.9285749539451	6671.233790262631	7.540791712603912	168.88313386312547	6894.898920732518	1036.9082150422944	3.390749778598224	6842.748773418358	1110.118263013608	-33.544007330714656	6781.779476105944	1181.781786174819	-70.50722358884042	6713.7198827311795	1242.7434623569754	-103.05021895621339	6640.341973585202	1307.3836180417095	-137.1694072174746	6573.342963305698	1366.8816459358027	-166.8013780220547	6447.523927366322	1460.8317624383742	-192.95661362842563	6654.498944499711	1263.770031253492	-145.68473073566884	6597.103456846361	1178.2579573333078	-176.59220064711292	6603.051836338193	1072.2718022266915	17.939462505810994	6539.143806418564	1030.6100460049454	177.93454263528685	6547.422187158336	1045.0221061498598	173.67541382687452	6552.005534774954	1039.2736714728574	188.30366106697363	6553.870987832982	1032.9048531239498	201.68333428524963	6554.291446615173	1025.571725795907	215.56853774939182	6543.48059006845	1039.344658535508	183.86182857644104	6544.956549197955	1037.5076253273655	208.51857800529731	6545.697263348166	1028.321928272596	230.30989466612792	6546.966487414383	1020.3403996513974	241.88651801712723	6548.5625313602595	1012.2023728712236	250.13896628445815	6539.808043702165	1032.5986808681587	191.90707264525534	6539.261250271533	1027.160244264264	220.3068791822451	6539.579785338649	1016.2427889114086	245.0729024324968	6540.876051342253	1006.1843399084344	259.5134703473778	6542.5081697633605	997.071294784221	268.7734709141017	6537.170256982716	1027.9439829059581	196.94057192264734	6534.374426457955	1019.2180425712259	226.69970180080162	6534.152433343135	1008.7964118787963	249.25052064271054	6535.1374559040905	998.6131294692719	263.69188028161483	6536.546323155728	989.8165823163934	272.6413706704938	6534.1303835157305	1022.1246155533166	202.19512986267026	6529.674122465996	1010.7493218334415	232.6660521805715	6528.729110440699	1001.0282763287655	252.09927358663228	6529.076443475113	992.9350339698583	263.29816937696387	6530.110874318625	984.7597134839601	271.6088560716869	6676.096983035221	1309.323367584449	-105.6231834050554	6737.27385437248	1375.652300438547	-18.43022816941229	6766.860103129809	1138.9889082618067	41.91704243046007	6639.232581530312	973.3579681144345	157.19494839297343	6636.50737674285	989.5285746695957	166.53519065215954	6641.247611837144	987.2357526602174	180.73330141692375	6647.432764750297	981.9958348017067	190.5258041554253	6655.056290735601	974.510884419825	198.60806847199154	6646.816724659128	978.8319220017731	166.68989159307233	6668.14836332439	969.8749226015634	182.4141544650011	6681.813517816048	958.9433148538697	195.28757338314279	6685.657094378951	953.2309089598764	203.20812570292424	6685.700473980292	949.2337887574625	209.7080813719016	6653.862350668973	969.0114502329986	165.97582142353676	6678.4799086287485	954.9645013792664	180.92600179843993	6694.250299166001	941.7633382711559	194.83064999611153	6699.299622922202	934.2608489465098	204.31797363397476	6699.547465463192	929.5903994707498	211.39678463826326	6658.330811418036	962.3239627650894	165.05297217436504	6684.374625425092	943.9945554863302	177.60019388130365	6698.958947789402	931.209534472028	189.55019694802803	6704.274856661963	923.2936538835573	198.61154294138151	6704.718965787751	918.5804299319923	205.2247936162628	6662.586644618494	954.7015918239204	163.6684882283729	6689.222167100455	933.2621029668062	174.27089897099728	6702.095522227551	921.1089693220825	183.52123705249872	6706.550920983032	914.4085661654602	189.97641428841277	6707.27694697687	909.700190977006	195.74593208513008
313	1.3	6921.0129	906.651	56.2195	6905.600445275431	853.6668412836859	-24.943698863203778	6843.139048018943	441.9441313545436	-67.34361356776495	6964.058069674222	93.36221662967282	-200.25292398040975	6892.64010550077	11.753018651463144	-42.846697057742546	6942.243567624292	930.7435638929611	149.79790060581695	6892.995936451968	531.9797942012441	267.55538428401434	6784.888800626005	102.85188466027004	289.93284725306194	6671.466545137325	7.6792713372645185	168.85730349130097	6894.948121938464	1036.90031284613	3.347068548385214	6842.748619185665	1110.126166098713	-33.49655511122504	6781.719637455684	1181.817234720073	-70.32938654205151	6713.5927195694185	1242.8306506189072	-102.68713341713652	6640.143635690025	1307.524516946086	-136.60805564563844	6573.09163242927	1367.0817736609608	-166.0551303744159	6447.265281237354	1461.1000217585456	-191.99124003574215	6654.109150184283	1263.7635064090189	-145.14529682336737	6595.80033041316	1177.6825003177198	-175.31679990802286	6602.497356113517	1073.1022894000732	20.713674754973496	6538.527037071262	1033.2674223994482	183.3523548475589	6546.991916480341	1047.8363879293936	179.1509806260823	6551.774174273828	1042.1045108627898	194.00232992701723	6553.754458072875	1035.7611436696814	207.5742200161543	6554.250379859989	1028.4611424182374	221.65118926182151	6542.9761328914	1042.2454916816353	189.47212698366462	6544.563477764959	1040.7357744406013	214.5712473515173	6545.415753175502	1031.6589835857988	236.68461577874297	6546.783678464157	1023.6431740390601	248.40491303265497	6548.481210528707	1015.4079789445288	256.7381384130705	6539.236894222658	1035.5203326791682	197.60287120452006	6538.762659490578	1030.4124449154722	226.48039606604385	6539.193811401194	1019.6153647137269	251.60770628223813	6540.604781058392	1009.5162941869899	266.2263449145971	6542.345818688281	1000.297287573033	275.57703129629033	6536.548668572537	1030.8733536424584	202.68567239616172	6533.772680700871	1022.4543399776761	232.91627121750804	6533.639415598619	1012.1386634750847	255.79131663520772	6534.73007154058	1001.916747641023	270.40939292838016	6536.238977410696	993.0208301772786	279.446498008954	6533.451203332631	1025.0426615824838	207.98278277685372	6528.9760673996025	1013.946577339877	238.91312952361824	6528.087311750452	1004.3106417511756	258.6184741320556	6528.504537977427	996.1893485937053	269.95231181744214	6529.623468306505	987.926076156027	278.3440892965332	6676.148127337051	1309.5790360478827	-105.1804760677033	6738.189682773383	1376.7072463522434	-18.270418431052697	6768.217515443655	1139.8900160208202	43.634043909464644	6639.074658952335	974.8860298199077	161.39761644952006	6636.502370078542	991.3156076242464	170.85007475876824	6641.485144944907	989.2390883503554	185.34997587381423	6647.8687523572635	984.1399396400349	195.35352005796332	6655.683000300706	976.7639039041374	203.61246873197217	6646.935896120165	980.6129176896986	171.00113731477919	6668.782341636814	971.98179677595	186.96851737915824	6682.783207702591	961.2472548345697	200.10229894109847	6686.759103866309	955.6238030616556	208.21518833810717	6686.86047547718	951.6776718111519	214.89489414411372	6654.042902917404	970.7528623270279	170.28531788746193	6679.195795344407	957.0023632040654	185.4716552811011	6695.338915043605	944.0099209811622	199.65950538554256	6700.550948954186	936.6117200093173	209.37844218544606	6700.8637383277	931.9955879031326	216.65372119049374	6658.542116665725	964.0293951975325	169.35415709622035	6685.093927632186	945.935316928907	182.10325721739213	6700.00881519761	933.3252905283547	194.29881205335946	6705.484694096277	925.5063254956937	203.58288337852218	6705.9913020841805	920.8424301780151	210.38053938275502	6662.814347928795	956.3537350746326	167.95991734130524	6689.9278378220015	935.0983548429593	178.7386288043067	6703.072559872755	923.0735145992802	188.18271219772822	6707.647864350252	916.4380766542926	194.7989513881416	6708.431109012172	911.7701035872915	200.73101959554282
314	1.304	6921.0129	906.651	56.2195	6905.143569536522	853.5056768725253	-25.016721012666267	6842.8988588590755	441.7316762303599	-67.29690557894521	6964.280481312797	93.31877314947282	-200.47390649307277	6892.904936033629	11.69571952092149	-43.054891222399704	6942.69238619571	930.9078175958783	149.8817767256757	6893.443895541372	532.1841543137459	267.77941027226467	6785.027998719628	103.07374497349245	289.93709023509075	6671.696129411461	7.816326270950718	168.83178751778289	6894.996316931377	1036.892181696881	3.3034405610432147	6842.747700608265	1110.1335647318567	-33.449735868790604	6781.65942429615	1181.851851352105	-70.1531223284757	6713.46578162261	1242.916616296825	-102.32693690331291	6639.946175105657	1307.6638061098174	-136.0510045533101	6572.841718906796	1367.279889564946	-165.31450672847598	6447.008403746877	1461.3660941932465	-191.03296536601428	6653.722008511494	1263.7570407131527	-144.60973729714254	6594.507537589444	1177.11312101762	-174.05002367541215	6601.954354305032	1073.9305885513054	23.461380668544663	6537.930384290419	1035.9276046487666	188.7156682963905	6546.581943085961	1050.6552143661763	184.5701159102477	6551.561861909059	1044.9420541591312	199.641590964588	6553.656189779356	1038.6255648752112	213.4033877896147	6554.226989965365	1031.3598132959955	227.66999383860167	6542.49246773831	1045.1507142093635	195.02495179097374	6544.191760702035	1043.9706164296554	220.56107497164595	6545.155028407391	1035.0045429418183	242.99283222965104	6546.620662640893	1026.955576669903	254.85517603312272	6548.418430793208	1018.6241425461308	263.26826993935094	6538.686697939244	1038.4460943049166	203.240740681236	6538.2856578533265	1033.670850863123	232.59050156675565	6538.828823995635	1022.9960780559504	258.07505916087075	6540.353308912413	1012.8577211495955	272.86978473001244	6542.201900056775	1003.533759564132	282.31015283217596	6535.948143283243	1033.80657573993	208.37265561561586	6533.19269387147	1025.6961360437647	239.06963697033146	6533.147649071756	1015.4880495283705	262.2653531825603	6534.342801401438	1005.2287624437479	277.05821410439586	6535.950466203319	996.2344088814762	286.181981003578	6532.793114691298	1027.9642113582618	213.71228354055026	6528.299794687864	1017.1486266840668	245.09735497322373	6527.466913094837	1007.5990282930347	265.07194326524825	6527.95321491039	999.4505650136764	276.53929805113546	6529.155517877481	991.1001451878259	285.0113132649751	6676.197826128024	1309.831636119375	-104.74148977411376	6739.096262809011	1377.7511086524762	-18.114744554077866	6769.57006547743	1140.7859149075339	45.33017955712732	6638.925543397856	976.4177206093935	165.55988470130043	6636.504836134055	993.1070554337828	175.1221244166585	6641.728676838142	991.2467798813221	189.9205750939667	6648.309460036426	986.288435876329	200.13303530697	6656.313148124176	979.0214100049559	208.56700893794954	6647.061412901402	982.398803604836	175.26988186989877	6669.418403431217	974.0952163598917	191.47728543436406	6683.752553022596	963.5582057197154	204.86882068004195	6687.8600906496895	958.0234298493461	213.17230780226288	6688.019453767528	954.1276743938943	220.0302449194732	6654.229288263595	972.4992829034857	174.55275675874253	6679.913081074284	959.0469120866401	189.97247373609918	6696.42622736032	946.2637080739472	204.44074684698472	6701.800127803341	938.9694642924491	214.3892309726166	6702.177851075928	934.406980837699	221.8593319697269	6658.758993923598	965.7398852217974	173.61368163119738	6685.814578100546	947.8827057521473	186.56253009555223	6701.057628104145	935.4481317207732	199.00128842059496	6706.692638230719	927.7257664495111	208.50613161703095	6707.261721046917	923.1105727255455	215.4866638646476	6663.047508489137	958.0108831235249	172.21019509602732	6690.634992968816	936.9410454771563	183.16358276281557	6704.049102758718	925.044868976111	192.79965547269956	6708.743674461886	918.4741677334388	199.5755919416272	6709.584101150849	913.8460423867306	205.66889067632968
